<?xml version="1.0" encoding="UTF-8" standalone="no"?>
<!-- Created with Inkscape (http://www.inkscape.org/) -->

<svg
   xmlns:dc="http://purl.org/dc/elements/1.1/"
   xmlns:cc="http://creativecommons.org/ns#"
   xmlns:rdf="http://www.w3.org/1999/02/22-rdf-syntax-ns#"
   xmlns:svg="http://www.w3.org/2000/svg"
   xmlns="http://www.w3.org/2000/svg"
   xmlns:sodipodi="http://sodipodi.sourceforge.net/DTD/sodipodi-0.dtd"
   xmlns:inkscape="http://www.inkscape.org/namespaces/inkscape"
   width="115.45973mm"
   height="37.631138mm"
   viewBox="0 0 115.01989 37.631138"
   version="1.1"
   id="svg1119"
   inkscape:version="0.92.3 (2405546, 2018-03-11)"
   sodipodi:docname="logoOnly.svg">
  <defs
     id="defs1113" />
  <sodipodi:namedview
     id="base"
     pagecolor="#ffffff"
     bordercolor="#666666"
     borderopacity="1.0"
     inkscape:pageopacity="0.0"
     inkscape:pageshadow="2"
     inkscape:zoom="1.4"
     inkscape:cx="212.93456"
     inkscape:cy="96.317705"
     inkscape:document-units="mm"
     inkscape:current-layer="g1082"
     showgrid="false"
     viewbox-width="437"
     fit-margin-top="0"
     fit-margin-left="0"
     fit-margin-right="0"
     fit-margin-bottom="0"
     inkscape:window-width="2560"
     inkscape:window-height="993"
     inkscape:window-x="0"
     inkscape:window-y="0"
     inkscape:window-maximized="1" />
  <metadata
     id="metadata1116">
    <rdf:RDF>
      <cc:Work
         rdf:about="">
        <dc:format>image/svg+xml</dc:format>
        <dc:type
           rdf:resource="http://purl.org/dc/dcmitype/StillImage" />
        <dc:title></dc:title>
      </cc:Work>
    </rdf:RDF>
  </metadata>
  <g
     inkscape:label="Layer 1"
     inkscape:groupmode="layer"
     id="layer1"
     transform="translate(-56.062997,-118.67848)">
    <g
       transform="translate(52.402322,-107.14945)"
       id="g1082">
      <g
         id="g1811"
         transform="translate(0.18008465)">
        <g
           style="fill:#ef9233;fill-opacity:1"
           id="g1045"
           transform="matrix(0.57509905,0.05860583,-0.05860583,0.57509905,64.76553,104.572)">
          <g
             style="fill:#e98f41;fill-opacity:1"
             id="g2108"
             transform="matrix(0.3805363,0,0,-0.3805363,99.12863,200.83662)">
            <path
               d="m 0,0 c -3.048,0.247 -6.329,-0.396 -8.541,-2.509 -2.149,-2.053 -2.966,-5.184 -2.933,-8.157 0.08,-7.289 4.516,-13.684 7.599,-20.289 2.52,-5.399 4.197,-11.191 4.952,-17.102 6.861,3.061 13.526,6.565 19.936,10.483 3.889,2.378 7.748,4.962 10.643,8.483 2.896,3.522 4.745,8.142 4.032,12.644 -0.714,4.503 -4.448,8.631 -9,8.89 -2.134,0.122 -4.29,-0.676 -6.238,-1.473 -0.534,-0.219 -6.03,-2.881 -5.808,-3.297 -0.673,1.264 -1.242,2.633 -1.999,3.833 C 9.7,-3.827 5.766,-0.467 0,0"
               style="fill:#e98f41;fill-opacity:1;fill-rule:nonzero;stroke:none"
               id="path2106"
               inkscape:connector-curvature="0" />
          </g>
          <g
             style="fill:#feab64;fill-opacity:1"
             id="g2112"
             transform="matrix(0.3805363,0,0,-0.3805363,114.84713,219.76607)">
            <path
               d="m 0,0 c 1.839,-0.961 3.491,-2.518 3.997,-4.531 0.491,-1.957 -0.173,-4.051 -1.268,-5.746 -2.683,-4.158 -7.544,-6.225 -11.705,-8.904 -3.401,-2.188 -6.46,-4.908 -9.032,-8.029 -2.833,4.24 -5.392,8.664 -7.656,13.233 -1.374,2.774 -2.654,5.654 -3.043,8.724 -0.39,3.07 0.221,6.393 2.259,8.72 2.039,2.328 5.677,3.347 8.386,1.849 1.269,-0.702 2.218,-1.94 3.049,-3.103 0.228,-0.318 2.421,-3.836 2.143,-3.995 0.844,0.482 1.666,1.062 2.535,1.478 C -6.957,1.312 -3.48,1.818 0,0"
               style="fill:#feab64;fill-opacity:1;fill-rule:nonzero;stroke:none"
               id="path2110"
               inkscape:connector-curvature="0" />
          </g>
          <g
             style="fill:#feab64;fill-opacity:1"
             id="g2116"
             transform="matrix(0.3805363,0,0,-0.3805363,54.717307,193.26309)">
            <path
               d="m 103.20452,-55.14568 c 2.067,0.185 4.299,-0.233 5.812,-1.655 1.47,-1.381 2.042,-3.502 2.037,-5.521 -0.014,-4.948 -2.989,-9.313 -5.044,-13.814 -1.68,-3.679 -2.786,-7.62 -3.265,-11.636 -4.674996,2.038 -9.217996,4.38 -13.591996,7.003 -2.653,1.592 -5.287,3.325 -7.271,5.698 -1.986,2.374 -3.267,5.5 -2.808,8.56 0.459,3.06 2.97,5.884 6.058,6.085 1.449,0.094 2.916,-0.435 4.243,-0.965 0.364,-0.146 4.109,-1.921 3.962,-2.205 0.449,0.861 0.827,1.794 1.335,2.613 1.971,3.184 4.623,5.487 8.532996,5.837"
               style="fill:#feab64;fill-opacity:1;fill-rule:nonzero;stroke:none"
               id="path2114"
               inkscape:connector-curvature="0" />
          </g>
        </g>
        <g
           id="g1492"
           transform="matrix(0.34155289,0,0,-0.34155289,66.087595,293.5912)">
          <g
             id="g1490"
             transform="matrix(1.2072264,0,0,1.2072264,6.1223666,-27.868952)">
            <g
               id="text1480"
               style="font-style:normal;font-variant:normal;font-weight:normal;font-stretch:normal;font-size:58.10923004px;line-height:1.25;font-family:'Rouge Script';-inkscape-font-specification:'Rouge Script';letter-spacing:0px;word-spacing:0px;fill:#e98f41;fill-opacity:1;stroke:none;stroke-width:10.89548111"
               transform="scale(1,-1)"
               aria-label="Vegan  ">
              <path
                 inkscape:connector-curvature="0"
                 id="path1084"
                 style="font-style:normal;font-variant:normal;font-weight:normal;font-stretch:normal;font-family:Pacifico;-inkscape-font-specification:Pacifico;fill:#e98f41;fill-opacity:1;stroke-width:10.89548111"
                 d="m -114.38237,-147.70541 q 1.33651,0 1.9176,0.5811 0.63921,0.58109 0.63921,1.51084 0,1.51084 -0.92975,2.67302 -0.87164,1.16219 -2.78924,1.22029 -4.64874,0.11622 -8.25152,-0.69731 -4.12575,8.65828 -9.99478,14.41109 -5.81093,5.69471 -11.67996,5.69471 -6.04336,0 -9.00693,-7.03122 -2.96357,-7.03122 -2.96357,-19.00172 0,-10.22722 1.45273,-18.36251 0.52298,-3.02168 1.45273,-4.06765 0.98786,-1.10408 3.31223,-1.10408 3.83521,0 3.83521,3.31223 0,0.34866 -0.11622,1.2784 -1.74328,10.45966 -1.74328,18.94361 0,8.89071 1.45273,13.53945 1.51084,4.59063 4.47441,4.59063 3.02168,0 6.56635,-4.18386 3.54466,-4.18387 6.50823,-10.51777 -3.54466,-2.20815 -5.34605,-5.69471 -1.80139,-3.54466 -1.80139,-8.13529 0,-4.59063 1.39463,-7.72853 1.45273,-3.196 3.89331,-4.76495 2.4987,-1.56895 5.52038,-1.56895 3.71899,0 5.86903,2.67302 2.20815,2.67303 2.20815,7.32176 0,6.68257 -2.90546,14.58542 3.07979,0.52298 7.03122,0.52298 z m -17.14222,-11.44751 q 0,5.6947 3.66088,8.42583 2.26626,-6.50823 2.26626,-10.7502 0,-2.44059 -0.6392,-3.54467 -0.6392,-1.16218 -1.74328,-1.16218 -1.56895,0 -2.55681,1.85949 -0.98785,1.80139 -0.98785,5.17173 z" />
              <path
                 inkscape:connector-curvature="0"
                 id="path1086"
                 style="font-style:normal;font-variant:normal;font-weight:normal;font-stretch:normal;font-family:Pacifico;-inkscape-font-specification:Pacifico;fill:#e98f41;fill-opacity:1;stroke-width:10.89548111"
                 d="m -91.506401,-135.56058 q 0.75542,0 1.162185,0.69731 0.464874,0.69731 0.464874,1.91761 0,2.32437 -1.104076,3.60277 -2.150041,2.61492 -6.101469,4.82307 -3.893323,2.20815 -8.367733,2.20815 -6.10147,0 -9.4718,-3.31223 -3.37034,-3.31222 -3.37034,-9.06504 0,-4.00954 1.68517,-7.43798 1.68517,-3.48655 4.64874,-5.52038 3.02168,-2.03382 6.79878,-2.03382 3.37034,0 5.404159,2.03382 2.033823,1.97572 2.033823,5.40416 0,4.00954 -2.905462,6.915 -2.84735,2.84735 -9.70424,4.53252 1.45273,2.67302 5.52038,2.67302 2.61491,0 5.927137,-1.80138 3.370335,-1.8595 5.810923,-4.82307 0.697311,-0.81353 1.568949,-0.81353 z m -14.643529,-8.42584 q -2.15004,0 -3.66088,2.4987 -1.45273,2.4987 -1.45273,6.04336 v 0.11622 q 3.42845,-0.81353 5.40416,-2.44059 1.97571,-1.62706 1.97571,-3.7771 0,-1.10407 -0.6392,-1.74327 -0.58109,-0.69732 -1.62706,-0.69732 z" />
              <path
                 inkscape:connector-curvature="0"
                 id="path1088"
                 style="font-style:normal;font-variant:normal;font-weight:normal;font-stretch:normal;font-family:Pacifico;-inkscape-font-specification:Pacifico;fill:#e98f41;fill-opacity:1;stroke-width:10.89548111"
                 d="m -65.199264,-135.44436 q 0.75542,0 1.162185,0.75542 0.464874,0.69731 0.464874,1.80139 0,1.33651 -0.406765,2.09193 -0.406765,0.75542 -1.278403,1.33651 -4.997394,3.37034 -7.321763,4.9974 l -3.718991,2.49869 q -2.208151,12.02861 -5.810923,18.8855 -3.544663,6.915001 -9.06504,6.915001 -2.96357,0 -4.823066,-1.859495 -1.859495,-1.801386 -1.859495,-4.764956 0,-4.12576 3.254117,-8.89071 3.254117,-4.70685 12.202938,-11.62185 l 0.348655,-2.26626 q -0.987857,1.56895 -2.614915,2.44059 -1.568949,0.81353 -3.137898,0.81353 -3.602773,0 -5.752814,-2.61492 -2.150042,-2.61491 -2.150042,-6.85689 0,-4.64874 2.150042,-8.77449 2.150041,-4.18387 5.694704,-6.68256 3.602773,-2.55681 7.61231,-2.55681 1.278403,0 1.685167,0.52298 0.464874,0.46488 0.75542,1.74328 1.104076,-0.23244 2.556806,-0.23244 1.452731,0 2.033823,0.46488 0.639202,0.40676 0.639202,1.68517 0,0.69731 -0.05811,1.10407 -0.232437,1.80139 -1.452731,9.12315 -0.232437,1.39462 -0.522983,3.07979 -0.232437,1.62706 -0.522983,3.48655 4.47441,-3.48655 8.600166,-6.15957 0.75542,-0.46488 1.336513,-0.46488 z m -20.512558,7.26366 q 1.336512,0 2.556806,-1.62706 1.220294,-1.62706 1.743277,-4.64874 l 1.859495,-9.93668 q -2.382478,0.0581 -4.416301,1.8595 -2.033823,1.74327 -3.254117,4.64873 -1.220294,2.90547 -1.220294,6.15958 0,1.80139 0.697311,2.67303 0.75542,0.87164 2.033823,0.87164 z m -4.823066,26.38159 q 1.452731,0 3.254117,-3.48656 1.859495,-3.48655 3.544663,-11.09886 -4.474411,3.83521 -6.450125,6.915 -1.975714,3.07979 -1.975714,5.40416 0,0.98785 0.348656,1.62705 0.406764,0.63921 1.278403,0.63921 z" />
              <path
                 inkscape:connector-curvature="0"
                 id="path1090"
                 style="font-style:normal;font-variant:normal;font-weight:normal;font-stretch:normal;font-family:Pacifico;-inkscape-font-specification:Pacifico;fill:#e98f41;fill-opacity:1;stroke-width:10.89548111"
                 d="m -60.565054,-122.31167 q -3.602772,0 -5.752813,-2.61492 -2.150042,-2.61491 -2.150042,-6.85689 0,-4.64874 2.150042,-8.77449 2.150041,-4.18387 5.694704,-6.68256 3.602772,-2.55681 7.612309,-2.55681 1.278403,0 1.685168,0.52298 0.464874,0.46488 0.75542,1.74328 1.220294,-0.23244 2.556806,-0.23244 2.847352,0 2.847352,2.03383 0,1.22029 -0.871638,5.81092 -1.336512,6.68256 -1.336512,9.29748 0,0.87164 0.406764,1.39462 0.464874,0.52298 1.162185,0.52298 1.104075,0 2.673024,-1.39462 1.56895,-1.45273 4.241974,-4.64874 0.697311,-0.81353 1.568949,-0.81353 0.75542,0 1.162185,0.69731 0.464874,0.69731 0.464874,1.91761 0,2.32437 -1.104075,3.60277 -2.382479,2.96357 -5.055503,4.99739 -2.673025,2.03383 -5.171722,2.03383 -1.917605,0 -3.544663,-1.27841 -1.568949,-1.33651 -2.382478,-3.60277 -3.02168,4.88118 -7.61231,4.88118 z m 2.091933,-5.86903 q 1.278403,0 2.440587,-1.51084 1.162185,-1.51084 1.685168,-4.00954 l 2.150042,-10.6921 q -2.440588,0.0581 -4.53252,1.8595 -2.033823,1.74327 -3.254117,4.64873 -1.220294,2.90547 -1.220294,6.15958 0,1.80139 0.697311,2.67303 0.75542,0.87164 2.033823,0.87164 z" />
              <path
                 inkscape:connector-curvature="0"
                 id="path1092"
                 style="font-style:normal;font-variant:normal;font-weight:normal;font-stretch:normal;font-family:Pacifico;-inkscape-font-specification:Pacifico;fill:#e98f41;fill-opacity:1;stroke-width:10.89548111"
                 d="m -36.234538,-122.31167 q -2.20815,0 -3.137898,-2.32437 -0.871639,-2.32437 -0.871639,-7.43798 0,-7.5542 2.150042,-14.35298 0.522983,-1.68517 1.685168,-2.44059 1.220293,-0.81353 3.370335,-0.81353 1.162184,0 1.627058,0.29055 0.464874,0.29054 0.464874,1.10407 0,0.92975 -0.871638,4.18387 -0.581093,2.32437 -0.929748,4.06764 -0.348655,1.74328 -0.581092,4.30009 1.917604,-4.9974 4.300083,-8.1353 2.382478,-3.1379 4.648738,-4.47441 2.324369,-1.33651 4.241974,-1.33651 1.859495,0 2.789243,0.98786 0.987857,0.92974 0.987857,2.78924 0,1.51084 -0.639202,5.6947 -0.581092,3.54467 -0.929747,6.74068 -0.348656,3.13789 -0.348656,7.03121 0,2.20815 -0.929747,3.19601 -0.871639,0.92975 -2.905462,0.92975 -1.917604,0 -2.789243,-0.98786 -0.871638,-0.98786 -0.871638,-2.96357 0,-2.32437 0.813529,-7.67042 0.697311,-4.64874 0.697311,-5.92714 0,-0.92975 -0.639202,-0.92975 -0.75542,0 -2.150041,1.97572 -1.336513,1.9176 -2.789243,5.11361 -1.394622,3.19601 -2.26626,6.74067 -0.639202,2.73113 -1.51084,3.71899 -0.81353,0.92975 -2.614916,0.92975 z" />
            </g>
            <g
               id="text1488"
               style="font-style:normal;font-variant:normal;font-weight:normal;font-stretch:normal;font-size:58.10923004px;line-height:1.25;font-family:'Rouge Script';-inkscape-font-specification:'Rouge Script';letter-spacing:0px;word-spacing:0px;fill:#38a52b;fill-opacity:1;stroke:none;stroke-width:10.89548111"
               transform="scale(1,-1)"
               aria-label="4you  ">
              <path
                 inkscape:connector-curvature="0"
                 id="path1095"
                 style="font-style:normal;font-variant:normal;font-weight:normal;font-stretch:normal;font-family:Pacifico;-inkscape-font-specification:Pacifico;fill:#38a52b;fill-opacity:1;stroke-width:10.89548111"
                 d="m 14.334845,-135.6768 q 3.079789,0 3.079789,2.61492 0,2.09193 -1.162185,2.90546 -1.162184,0.81353 -3.660881,0.81353 h -1.220294 l -0.232437,3.07979 q -0.174328,2.67302 -1.1621846,3.60277 -0.9297477,0.92975 -3.0797892,0.92975 -3.0797892,0 -3.0797892,-3.7771 0,-0.6392 0.058109,-0.98786 l 0.2905462,-2.84735 q -8.4258384,0 -12.7840306,-0.0581 -1.2784031,0 -2.2662596,-1.16218 -0.987857,-1.16219 -0.987857,-3.02168 0,-1.10408 0.406765,-2.32437 2.5568054,-7.43798 7.6704177,-16.90979 1.1040753,-2.03382 2.2081507,-2.84735 1.16218461,-0.87164 3.544663,-0.87164 1.2784031,0 1.9176046,0.58109 0.6973108,0.5811 0.6973108,1.51084 0,0.98786 -0.5810923,1.97572 -5.6947045,10.40155 -8.0190738,16.79356 h 8.9488215 q 0.6973107,-5.40415 1.9176046,-10.28533 0.4648738,-1.80139 1.5108399,-2.73113 1.0459662,-0.98786 2.9054613,-0.98786 2.963571,0 2.963571,2.55681 0,0.75542 -0.116218,1.16218 -1.045966,4.93929 -1.859496,10.28533 z" />
              <path
                 inkscape:connector-curvature="0"
                 id="path1097"
                 style="font-style:normal;font-variant:normal;font-weight:normal;font-stretch:normal;font-family:Pacifico;-inkscape-font-specification:Pacifico;fill:#38a52b;fill-opacity:1;stroke-width:10.89548111"
                 d="m 51.360411,-135.44436 q 0.75542,0 1.162185,0.75542 0.464874,0.69731 0.464874,1.80139 0,1.33651 -0.406765,2.09193 -0.406764,0.75542 -1.278403,1.33651 l -11.156972,7.49609 q -2.208151,12.02861 -5.810923,18.8855 -3.544663,6.915001 -9.06504,6.915001 -2.963571,0 -4.823066,-1.859495 -1.859495,-1.801386 -1.859495,-4.764956 0,-2.73113 1.220293,-5.57849 1.278403,-2.84735 4.648739,-6.56634 3.428444,-3.66088 9.646132,-8.42584 l 0.174328,-1.33651 q 0.406764,-2.15004 0.929747,-6.15958 -1.162184,4.18387 -3.254117,6.39202 -2.091932,2.15004 -4.416301,2.15004 -2.614915,0 -4.300083,-2.38248 -1.627058,-2.44059 -1.627058,-6.04336 0,-4.35819 0.581092,-7.96097 0.581092,-3.66088 1.917604,-7.72852 0.581093,-1.74328 1.627059,-2.4987 1.045966,-0.75542 3.312226,-0.75542 1.278403,0 1.743277,0.40676 0.522983,0.40677 0.522983,1.2203 0,0.46487 -0.639202,3.1379 -0.581092,2.15004 -0.929747,3.89332 -0.464874,2.38247 -0.813529,4.59062 -0.348656,2.15005 -0.348656,3.54467 0,2.20815 1.220294,2.20815 0.871638,0 2.150041,-1.74328 1.336513,-1.74328 2.789244,-5.28794 1.510839,-3.54466 2.905461,-8.71638 0.464874,-1.74328 1.394622,-2.4987 0.987856,-0.75542 2.905461,-0.75542 1.336512,0 1.859495,0.34866 0.522983,0.34865 0.522983,1.16218 0,1.45273 -1.51084,9.99479 l -1.510839,9.35558 q 4.47441,-3.37033 8.716384,-6.15957 0.75542,-0.46488 1.336512,-0.46488 z m -25.451842,33.64525 q 1.45273,0 3.254116,-3.37034 1.801387,-3.37033 3.602773,-11.21508 -4.474411,3.7771 -6.508234,6.85689 -1.975714,3.1379 -1.975714,5.46227 0,0.98785 0.348655,1.62705 0.406765,0.63921 1.278404,0.63921 z" />
              <path
                 inkscape:connector-curvature="0"
                 id="path1099"
                 style="font-style:normal;font-variant:normal;font-weight:normal;font-stretch:normal;font-family:Pacifico;-inkscape-font-specification:Pacifico;fill:#38a52b;fill-opacity:1;stroke-width:10.89548111"
                 d="m 79.050368,-140.44175 q 0.75542,0 1.162185,0.75542 0.406764,0.75542 0.406764,1.9176 0,2.78925 -1.685167,3.31223 -3.486554,1.22029 -7.670419,1.39462 -1.104075,4.88118 -4.358192,7.84475 -3.254117,2.90546 -7.379872,2.90546 -3.486554,0 -5.985251,-1.68517 -2.440588,-1.68517 -3.718991,-4.47441 -1.278403,-2.78924 -1.278403,-6.04336 0,-4.4163 1.685168,-7.84475 1.685168,-3.48655 4.648738,-5.40416 2.963571,-1.97571 6.566343,-1.97571 4.416302,0 7.089326,3.07979 2.731134,3.02168 3.196008,7.49609 2.731134,-0.17433 6.508234,-1.16218 0.464874,-0.11622 0.813529,-0.11622 z m -19.059827,11.9705 q 1.859495,0 3.196007,-1.51084 1.394622,-1.51084 1.859496,-4.35819 -1.801386,-1.2203 -2.789243,-3.19601 -0.929748,-1.97571 -0.929748,-4.18387 0,-0.92974 0.174328,-1.85949 h -0.290547 q -2.324369,0 -3.893318,2.26626 -1.51084,2.20815 -1.51084,6.2758 0,3.196 1.220294,4.88117 1.278403,1.68517 2.963571,1.68517 z" />
              <path
                 inkscape:connector-curvature="0"
                 id="path1101"
                 style="font-style:normal;font-variant:normal;font-weight:normal;font-stretch:normal;font-family:Pacifico;-inkscape-font-specification:Pacifico;fill:#38a52b;fill-opacity:1;stroke-width:10.89548111"
                 d="m 81.675275,-122.31167 q -2.731133,0 -4.416301,-2.20815 -1.627059,-2.26626 -1.627059,-6.21769 0,-4.35819 0.581093,-7.96097 0.581092,-3.66088 1.917604,-7.72852 0.581093,-1.74328 1.627059,-2.4987 1.045966,-0.75542 3.312226,-0.75542 1.278403,0 1.743277,0.40676 0.522983,0.40677 0.522983,1.2203 0,0.46487 -0.639202,3.1379 -0.581092,2.15004 -0.929747,3.89332 -1.162185,6.10146 -1.162185,8.13529 0,1.22029 0.290546,1.74327 0.290546,0.46488 0.929748,0.46488 0.871638,0 2.208151,-1.74328 1.336512,-1.80138 2.789243,-5.34605 1.51084,-3.60277 2.847352,-8.65827 0.464874,-1.74328 1.394621,-2.4987 0.987857,-0.75542 2.905462,-0.75542 1.278403,0 1.801386,0.69731 0.581092,0.6392 0.581092,1.97571 0,1.45274 -0.232437,3.25412 -0.232437,1.74328 -0.522983,3.60277 -0.581092,3.71899 -0.929747,6.79878 -0.348656,3.02168 -0.348656,6.915 0,2.20815 -0.929747,3.19601 -0.871639,0.92975 -2.905462,0.92975 -2.150041,0 -3.02168,-1.10408 -0.813529,-1.16218 -0.813529,-4.4163 0,-0.6392 0.116218,-2.84735 -0.987857,4.06764 -2.96357,6.21769 -1.917605,2.15004 -4.125756,2.15004 z" />
            </g>
          </g>
        </g>
      </g>
    </g>
  </g>
</svg>
